<svg xmlns="http://www.w3.org/2000/svg" viewBox="0 0 1600 490"><defs><style>.cls-1{fill:#414042;}.cls-2{font-size:40px;font-family:Montserrat-SemiBold, Montserrat;font-weight:600;}.cls-2,.cls-34,.cls-37,.cls-8{fill:#00b6f1;}.cls-3{letter-spacing:-0.01em;}.cls-4{letter-spacing:-0.05em;}.cls-5{letter-spacing:0em;}.cls-6{letter-spacing:0em;}.cls-7{letter-spacing:-0.02em;}.cls-8{font-size:16px;font-family:Montserrat-Medium, Montserrat;font-weight:500;}.cls-9{letter-spacing:-0.01em;}.cls-10{letter-spacing:-0.01em;}.cls-11{letter-spacing:-0.02em;}.cls-12{letter-spacing:0em;}.cls-13{letter-spacing:-0.02em;}.cls-14{letter-spacing:0.08em;}.cls-15{letter-spacing:-0.01em;}.cls-16{letter-spacing:-0.01em;}.cls-17{letter-spacing:-0.01em;}.cls-18{letter-spacing:0em;}.cls-19{letter-spacing:-0.02em;}.cls-20{letter-spacing:0em;}.cls-21{letter-spacing:-0.01em;}.cls-22{letter-spacing:-0.02em;}.cls-23{letter-spacing:0.02em;}.cls-24{letter-spacing:-0.02em;}.cls-25{letter-spacing:-0.02em;}.cls-26{letter-spacing:-0.01em;}.cls-27{letter-spacing:-0.01em;}.cls-28{letter-spacing:-0.02em;}.cls-29{letter-spacing:0.01em;}.cls-30{letter-spacing:0.01em;}.cls-31{letter-spacing:0em;}.cls-32,.cls-33,.cls-35,.cls-36,.cls-39{fill:none;stroke-linecap:round;stroke-linejoin:round;stroke-width:2px;}.cls-32{stroke:#fff;}.cls-33,.cls-35,.cls-36{stroke:#00b6f1;}.cls-33{stroke-dasharray:1 5;}.cls-34{font-size:37.23px;font-family:Montserrat-Bold, Montserrat;font-weight:700;}.cls-36{stroke-dasharray:0.97 4.87;}.cls-38{fill:#fff;}.cls-39{stroke:#6d6e71;}</style></defs><g id="Layer_2" data-name="Layer 2"><g id="how_it_works_section" data-name="how it works section"><rect class="cls-1" width="1600" height="490"/><text class="cls-2" transform="translate(294.34 92.91)">H<tspan class="cls-3" x="32.4" y="0">o</tspan><tspan x="57.6" y="0">w it </tspan><tspan class="cls-4" x="144.96" y="0">W</tspan><tspan class="cls-5" x="188.52" y="0">o</tspan><tspan class="cls-6" x="214.32" y="0">r</tspan><tspan class="cls-7" x="230.92" y="0">k</tspan><tspan x="255.68" y="0">s</tspan></text><text class="cls-8" transform="translate(296.34 352.08)"><tspan class="cls-9">C</tspan><tspan x="11.46" y="0">aptu</tspan><tspan class="cls-10" x="49.39" y="0">r</tspan><tspan x="55.76" y="0">e </tspan><tspan class="cls-11" x="69.86" y="0">w</tspan><tspan class="cls-12" x="83.97" y="0">as</tspan><tspan class="cls-13" x="101.55" y="0">t</tspan><tspan x="107.89" y="0">e </tspan><tspan class="cls-14" x="121.98" y="0">f</tspan><tspan class="cls-15" x="128.91" y="0">r</tspan><tspan x="135.28" y="0">om</tspan><tspan x="0" y="19.2">dai</tspan><tspan class="cls-9" x="24.94" y="19.2">r</tspan><tspan x="31.39" y="19.2">ies, </tspan><tspan class="cls-16" x="61.6" y="19.2">f</tspan><tspan x="67.09" y="19.2">a</tspan><tspan class="cls-17" x="76.66" y="19.2">r</tspan><tspan x="83.1" y="19.2">ms </tspan><tspan x="0" y="38.4">a</tspan><tspan class="cls-18" x="9.57" y="38.4">n</tspan><tspan x="20.51" y="38.4">d lanfills</tspan></text><text class="cls-8" transform="translate(602.96 352.08)"><tspan class="cls-19">C</tspan><tspan class="cls-20" x="11.22" y="0">o</tspan><tspan class="cls-21" x="21.38" y="0">n</tspan><tspan class="cls-22" x="32.11" y="0">v</tspan><tspan x="40.82" y="0">e</tspan><tspan class="cls-23" x="50.61" y="0">r</tspan><tspan x="57.41" y="0">t in</tspan><tspan class="cls-24" x="83.69" y="0">t</tspan><tspan x="90.03" y="0">o biogas</tspan><tspan x="0" y="19.2">usi</tspan><tspan class="cls-18" x="23.31" y="19.2">n</tspan><tspan x="34.26" y="19.2">g an</tspan><tspan class="cls-18" x="70.06" y="19.2">a</tspan><tspan x="79.68" y="19.2">e</tspan><tspan class="cls-15" x="89.47" y="19.2">r</tspan><tspan x="95.84" y="19.2">obic</tspan><tspan x="0" y="38.4">digestion</tspan></text><text class="cls-8" transform="translate(871.92 352.08)"><tspan class="cls-25">P</tspan><tspan class="cls-26" x="11.25" y="0">r</tspan><tspan x="17.62" y="0">o</tspan><tspan class="cls-27" x="27.78" y="0">c</tspan><tspan x="36.78" y="0">ess t</tspan><tspan class="cls-18" x="73.53" y="0">h</tspan><tspan x="84.48" y="0">e biogas </tspan><tspan class="cls-13" x="157.04" y="0">t</tspan><tspan x="163.37" y="0">o </tspan><tspan x="0" y="19.2">ma</tspan><tspan class="cls-28" x="26.48" y="19.2">k</tspan><tspan x="35.98" y="19.2">e it pipeli</tspan><tspan class="cls-18" x="110.48" y="19.2">n</tspan><tspan class="cls-29" x="121.42" y="19.2">e</tspan><tspan class="cls-12" x="131.38" y="19.2">-</tspan><tspan class="cls-15" x="137.5" y="19.2">r</tspan><tspan class="cls-22" x="143.87" y="19.2">e</tspan><tspan class="cls-18" x="153.42" y="19.2">a</tspan><tspan x="163.04" y="19.2">dy </tspan><tspan x="0" y="38.4">(bio</tspan><tspan class="cls-18" x="30.93" y="38.4">m</tspan><tspan x="47.89" y="38.4">etha</tspan><tspan class="cls-18" x="84.77" y="38.4">n</tspan><tspan x="95.71" y="38.4">e)</tspan></text><text class="cls-8" transform="translate(1137.98 352.08)">Inje<tspan class="cls-30" x="30.19" y="0">c</tspan><tspan x="39.44" y="0">t t</tspan><tspan class="cls-31" x="56.99" y="0">h</tspan><tspan class="cls-12" x="67.94" y="0">e bio</tspan><tspan class="cls-31" x="107.57" y="0">m</tspan><tspan class="cls-12" x="124.53" y="0">etha</tspan><tspan class="cls-31" x="161.41" y="0">n</tspan><tspan class="cls-12" x="172.35" y="0">e</tspan><tspan x="0" y="19.2">in</tspan><tspan class="cls-24" x="15.36" y="19.2">t</tspan><tspan x="21.7" y="19.2">o t</tspan><tspan class="cls-18" x="42.78" y="19.2">h</tspan><tspan x="53.73" y="19.2">e pipeli</tspan><tspan class="cls-18" x="112.83" y="19.2">n</tspan><tspan x="123.78" y="19.2">e </tspan><tspan class="cls-27" x="137.87" y="19.2">f</tspan><tspan x="143.39" y="19.2">or </tspan><tspan x="0" y="38.4">futu</tspan><tspan class="cls-10" x="33.94" y="38.4">r</tspan><tspan x="40.3" y="38.4">e use</tspan></text><polygon class="cls-32" points="964.16 194.12 903.33 194.12 872.92 246.8 903.33 299.47 964.16 299.47 994.57 246.8 964.16 194.12"/><polygon class="cls-33" points="906.58 293.84 879.42 246.8 906.58 199.75 960.91 199.75 988.07 246.8 960.91 293.84 906.58 293.84"/><polygon class="cls-32" points="979.21 168.31 948.8 168.31 933.59 194.64 948.8 220.98 979.21 220.98 994.41 194.64 979.21 168.31"/><polygon class="cls-32" points="1017.42 203.46 997.85 203.46 988.07 220.41 997.85 237.36 1017.42 237.36 1027.21 220.41 1017.42 203.46"/><text class="cls-34" transform="translate(896.7 259.58)">CH</text><text class="cls-34" transform="translate(954.07 247.18) scale(0.58)">4</text><path class="cls-32" d="M370.21,273.05l2.11,4.21-4,22.51h-5.11l3.5-26.72ZM317.1,279.6l3.79,20.17H326l-2.63-20.48H328v4.58a1.57,1.57,0,1,0,3.14,0v-4.58h4v4.58a1.57,1.57,0,1,0,3.13,0v-4.62l5.31-6.45-20.46-4.38-6.16,8ZM383.78,222H305.53a8.18,8.18,0,0,0-8.19,8.19v38.9h4.09v-38.9a4.11,4.11,0,0,1,4.1-4.1v18.56l2,14.2-2,12.28,2,28.67h5.12V275.2l8.87-11.56,24.92,5.42h26.76l5.37,10.24,2.16,20.48h5.12V269.06l29.18,30.71h4.26a3.41,3.41,0,0,0,3.41-3.41V276.74l5.63-5.64-12.79,0-22.73-43.69A10.22,10.22,0,0,0,383.78,222Zm88-25.8-11.22-16.66c-.92-1.33-2.16-1.6-3.84-1.28l-1.12-2.53a3.12,3.12,0,0,1,1.72-4.18l8.72-3.41H454.6a6,6,0,0,0-5.47,8.31l1.3,3-.76.13-3.47-2.2a6.8,6.8,0,0,0-3.64-1.06h-4.17l4.57,4.39-11.72,2H350a8.19,8.19,0,0,0-8.19,8.19v24h4.09v-24a4.1,4.1,0,0,1,4.1-4.09v14.46l2,13.66h34.82a13.27,13.27,0,0,1,11.8,7.16l1.88,3.61h8.63L407.38,239l4.79,9.19,4.62-19.91,3.73,7.65,2.16,20.47h5.11V225.49a15.49,15.49,0,0,0,10.93-7.18l10.6-17.22,8.19,2h6.61l2.36.63a4.83,4.83,0,0,0,5.29-7.61Z"/><line class="cls-35" x1="428.37" y1="299.77" x2="430.48" y2="287.28"/><line class="cls-35" x1="433.2" y1="299.77" x2="434.7" y2="290.88"/><line class="cls-35" x1="402.7" y1="299.77" x2="401.2" y2="293.52"/><line class="cls-35" x1="446.11" y1="256.88" x2="448.22" y2="244.39"/><line class="cls-35" x1="450.93" y1="256.88" x2="452.43" y2="247.98"/><line class="cls-35" x1="440.89" y1="256.88" x2="439.39" y2="250.63"/><line class="cls-35" x1="461.57" y1="276.15" x2="459.46" y2="263.66"/><line class="cls-35" x1="456.75" y1="276.15" x2="455.25" y2="267.25"/><line class="cls-35" x1="466.79" y1="276.15" x2="468.29" y2="269.9"/><path class="cls-35" d="M417.18,295.32l-.31-.38"/><path class="cls-36" d="M413.76,291.19C404.63,280.36,379.64,252,368.51,252h-12.8"/><path class="cls-35" d="M353.27,252h-.5"/><ellipse class="cls-33" cx="349.01" cy="252.27" rx="20.95" ry="10.97"/><path class="cls-33" d="M711.59,257.76l-26.83-45.17,12.9-.16a40.2,40.2,0,0,0-4.81-7.71,43.79,43.79,0,0,0-9.65-9,45.55,45.55,0,0,0-12.55-6"/><path class="cls-32" d="M725.22,218.09q-1.17-2.46-2.5-4.79a64,64,0,0,0-5.25-7.63,59.38,59.38,0,0,0-13.22-12.12,58,58,0,0,0-15.55-7.32A54.32,54.32,0,0,0,672.39,184a51.66,51.66,0,0,1,14.19,6.79,50.15,50.15,0,0,1,11,10.23,46.67,46.67,0,0,1,7,12.4,49.87,49.87,0,0,1,1.54,4.92l-10.92.14,21,35.3L736.28,218Z"/><path class="cls-33" d="M624.79,269.34l52.92-3-5.63,11.14h.72a41.53,41.53,0,0,0,9.65-1.15,43,43,0,0,0,12.91-5.43,45.94,45.94,0,0,0,11.12-9.8"/><path class="cls-32" d="M698.54,276a49.36,49.36,0,0,1-14.7,6.18,47.17,47.17,0,0,1-15.12,1.13,44.69,44.69,0,0,1-5.84-.92l4.79-9.47-41,2.3,22.48,34.35,4.88-9.66a61.72,61.72,0,0,0,16-1.33,60.14,60.14,0,0,0,17.81-7,56.9,56.9,0,0,0,14.09-11.75A54.65,54.65,0,0,0,711.11,265,52.21,52.21,0,0,1,698.54,276Z"/><path class="cls-33" d="M665.92,188.62l-31.17,38.76-4.14-10.68-.57.66-1.87,2.42-1.58,2.4-1.45,2.58-1.28,2.72-.83,2.13a14.49,14.49,0,0,0-.49,1.49l0,.11c-.07.25-.17.57-.27.88s-.22.66-.3,1l-.19.84c-.27,1.14-.53,2.22-.66,3.21l0,.18,0,.18c-.17.88-.26,1.9-.36,3,0,.37-.07.75-.1,1.12s0,.78,0,1.18,0,1.92,0,1.92l0,1.18a44.06,44.06,0,0,0,1.13,8.66,49.36,49.36,0,0,0,2.85,8.56l-2.32,1.35"/><path class="cls-32" d="M633,206.32l3.57,9.21,25.73-32-40.57-6.29,3.68,9.48a62.28,62.28,0,0,0-12,16.27c-.45.87-.87,1.76-1.28,2.64L611,208.34l-.54,1.34c-.17.46-.31.92-.47,1.38l-.9,2.75-.71,2.79L608,218l-.26,1.42c-.16.94-.34,1.87-.48,2.8L607,225c-.12.93-.15,1.88-.18,2.81s-.09,1.87-.06,2.8c.06,1.87.09,3.72.32,5.55s.51,3.64.81,5.43c.18.89.42,1.77.62,2.65l.32,1.31.41,1.29a55.35,55.35,0,0,0,4,9.85,57.92,57.92,0,0,0,5.71,8.69,57.19,57.19,0,0,1-3.19-9.63,50.9,50.9,0,0,1-1.26-9.82l0-1.22,0-1.22c0-.81,0-1.61.07-2.42.17-1.6.26-3.19.56-4.76s.61-3.11,1-4.63c.18-.76.45-1.5.67-2.25s.45-1.48.75-2.2l.83-2.15,1-2.08.48-1,.56-1,1.11-2,1.25-1.88c.2-.31.4-.62.61-.93l.69-.88,1.35-1.76c.48-.57,1-1.12,1.45-1.66A44.08,44.08,0,0,1,633,206.32Z"/><path class="cls-37" d="M666.45,255.76a16,16,0,0,1-16-16c0-8.55,14.48-23.8,15.09-24.45a1.3,1.3,0,0,1,1.81,0c.62.65,15.1,15.9,15.1,24.45a15.94,15.94,0,0,1-10.07,14.87,1.25,1.25,0,0,1-.93-2.33,13.44,13.44,0,0,0,8.5-12.54c0-5.84-9-16.88-13.5-21.75C662,222.88,653,233.92,653,239.76a13.51,13.51,0,0,0,13.5,13.5,1.25,1.25,0,0,1,0,2.5Z"/><path class="cls-37" d="M666.45,255.76a1.25,1.25,0,0,1-1.25-1.25V228.94a1.25,1.25,0,0,1,2.5,0v25.57A1.25,1.25,0,0,1,666.45,255.76Z"/><path class="cls-37" d="M666.45,242.44a1.25,1.25,0,0,1-.89-.37l-5.88-5.88a1.25,1.25,0,0,1,0-1.77,1.27,1.27,0,0,1,1.77,0l5.88,5.89a1.24,1.24,0,0,1,0,1.76A1.21,1.21,0,0,1,666.45,242.44Z"/><line class="cls-33" x1="1204.2" y1="249.99" x2="1140.15" y2="249.99"/><line class="cls-33" x1="1204.2" y1="266.96" x2="1140.15" y2="266.96"/><line class="cls-33" x1="1312.64" y1="249.99" x2="1248.59" y2="249.99"/><line class="cls-33" x1="1312.64" y1="266.96" x2="1248.59" y2="266.96"/><path class="cls-38" d="M1227.4,293.55c-7.41,0-19.82-11.49-21.09-19.52l-.13-.84h-28.71l-.19.77a5.13,5.13,0,0,1-5.1,3.69h-12c-2.88,0-5.23-2.09-5.23-4.65V242.89a5,5,0,0,1,5.23-4.66h12a5,5,0,0,1,5.13,3.92l.15.83h28.74v-1.16a14.16,14.16,0,0,1,14.14-14.14h1.19v-25h-33.1c-2.51,0-4.56-1.78-4.56-4v-3c0-2.19,2.05-4,4.56-4H1267c2.51,0,4.56,1.77,4.56,4v3c0,2.19-2,4-4.56,4h-33.69v25h1.19a14.16,14.16,0,0,1,14.14,14.14V243h28.52l.09-.95a5,5,0,0,1,5.19-4.42h12a5,5,0,0,1,5.23,4.66v30.11a5,5,0,0,1-5.23,4.66h-12a5.2,5.2,0,0,1-4.93-3.2l-.24-.65h-28.6l-.13.84C1247.22,282.06,1234.8,293.55,1227.4,293.55Zm-7.06-63.85a12.14,12.14,0,0,0-12.12,12.12v31a6.35,6.35,0,0,0,.13,1.17l0,.11c0,.1,0,.2.06.31,1.5,6.5,12.34,17.11,19,17.11s17.46-10.61,19-17.12l.06-.3V274a6.56,6.56,0,0,0,.13-1.18v-31a12.13,12.13,0,0,0-12.12-12.12Zm-60.13,10.55a3,3,0,0,0-3.21,2.64V273a3,3,0,0,0,3.21,2.64h12a3,3,0,0,0,3.2-2.64V242.89a3,3,0,0,0-3.2-2.64Zm122.18-.62a3,3,0,0,0-3.21,2.64v30.11a3,3,0,0,0,3.21,2.64h12a3,3,0,0,0,3.21-2.64V242.27a3,3,0,0,0-3.21-2.64Zm-33.8,31.54h28.58V245h-28.58Zm-71.19,0h28.8V245h-28.8Zm46.15-43.49h7.69v-25h-7.69Zm43.4-27a2.3,2.3,0,0,0,2.54-1.95v-3a2.3,2.3,0,0,0-2.54-1.94h-78.52a2.3,2.3,0,0,0-2.54,1.94v3a2.3,2.3,0,0,0,2.54,1.95H1267Z"/><path class="cls-37" d="M1218.82,263.83c2.12,7.62,8.61,9.94,11.63,10.63-.11-.27-.23-.57-.33-.89a8.1,8.1,0,0,1-.28-4.65,5.79,5.79,0,0,1,1.52-2.63l.4-.4c2.88-2.86,6.81-6.76,5-12.75a13,13,0,0,0-.67-1.75,17.62,17.62,0,0,1-4.27,5.42,16.65,16.65,0,0,0-4,5.15.85.85,0,0,1-.17.25.82.82,0,0,1-.71.24.85.85,0,0,1-.62-.4,5.87,5.87,0,0,1-.69-2.78,7.82,7.82,0,0,1,2.91-5.9c3.28-3,5-6.51,4.63-9.56a7.4,7.4,0,0,0-1.39-3.51,11.43,11.43,0,0,1-5,5.21,18.82,18.82,0,0,0-7.29,7.73v0a15.58,15.58,0,0,0-.8,2.12A15.35,15.35,0,0,0,1218.82,263.83Z"/><polyline class="cls-39" points="529.25 226.69 543.96 241.41 529.25 256.12"/><polyline class="cls-39" points="798.36 226.69 813.07 241.41 798.36 256.12"/><polyline class="cls-39" points="1084.46 226.69 1099.17 241.41 1084.46 256.12"/></g></g></svg>